<svg width="65" height="65" viewBox="0 0 65 65" fill="none" xmlns="http://www.w3.org/2000/svg">
<circle cx="32.2034" cy="32.2366" r="32.1931" fill="#404040"/>
<path d="M39.7717 45.4527V42.5158C39.7717 40.958 39.1528 39.4639 38.0513 38.3624C36.9497 37.2608 35.4557 36.642 33.8979 36.642H22.1502C20.5924 36.642 19.0983 37.2608 17.9968 38.3624C16.8952 39.4639 16.2764 40.958 16.2764 42.5158V45.4527" stroke="#B1A28D" stroke-width="4" stroke-linecap="round" stroke-linejoin="round"/>
<path d="M28.0237 30.7682C31.2678 30.7682 33.8976 28.1384 33.8976 24.8943C33.8976 21.6503 31.2678 19.0205 28.0237 19.0205C24.7797 19.0205 22.1499 21.6503 22.1499 24.8943C22.1499 28.1384 24.7797 30.7682 28.0237 30.7682Z" stroke="#B1A28D" stroke-width="4" stroke-linecap="round" stroke-linejoin="round"/>
<path d="M48.5821 45.4527V42.5158C48.5812 41.2144 48.148 39.9501 47.3506 38.9215C46.5533 37.8929 45.4369 37.1582 44.1768 36.8329" stroke="#B1A28D" stroke-width="4" stroke-linecap="round" stroke-linejoin="round"/>
<path d="M38.3032 19.2113C39.5667 19.5348 40.6866 20.2696 41.4863 21.2999C42.286 22.3302 42.7201 23.5973 42.7201 24.9016C42.7201 26.2058 42.286 27.473 41.4863 28.5032C40.6866 29.5335 39.5667 30.2683 38.3032 30.5918" stroke="#B1A28D" stroke-width="4" stroke-linecap="round" stroke-linejoin="round"/>
</svg>
