<svg width="95" height="95" viewBox="0 0 95 95" fill="none" xmlns="http://www.w3.org/2000/svg">
<circle cx="47.5" cy="47.5" r="47.5" fill="#404040"/>
<path d="M58.6667 67V62.6667C58.6667 60.3681 57.7536 58.1637 56.1283 56.5384C54.5029 54.9131 52.2985 54 50 54H32.6667C30.3681 54 28.1637 54.9131 26.5384 56.5384C24.9131 58.1637 24 60.3681 24 62.6667V67" stroke="#B1A28D" stroke-width="4" stroke-linecap="round" stroke-linejoin="round"/>
<path d="M41.3333 45.3333C46.1198 45.3333 50 41.4531 50 36.6667C50 31.8802 46.1198 28 41.3333 28C36.5468 28 32.6666 31.8802 32.6666 36.6667C32.6666 41.4531 36.5468 45.3333 41.3333 45.3333Z" stroke="#B1A28D" stroke-width="4" stroke-linecap="round" stroke-linejoin="round"/>
<path d="M71.6666 66.9999V62.6666C71.6652 60.7464 71.0261 58.881 69.8496 57.3633C68.6731 55.8456 67.0259 54.7617 65.1666 54.2816" stroke="#B1A28D" stroke-width="4" stroke-linecap="round" stroke-linejoin="round"/>
<path d="M56.5 28.2816C58.3642 28.7589 60.0166 29.8431 61.1966 31.3633C62.3765 32.8834 63.017 34.7531 63.017 36.6774C63.017 38.6018 62.3765 40.4715 61.1966 41.9916C60.0166 43.5118 58.3642 44.596 56.5 45.0733" stroke="#B1A28D" stroke-width="4" stroke-linecap="round" stroke-linejoin="round"/>
</svg>
