<svg width="100" height="104" viewBox="0 0 100 104" fill="none" xmlns="http://www.w3.org/2000/svg">
<ellipse cx="49.7109" cy="52.0913" rx="49.6634" ry="51.8789" fill="#404040"/>
<path d="M61.3861 73.3891V68.6562C61.3861 66.1458 60.4314 63.7382 58.7321 61.963C57.0328 60.1879 54.728 59.1906 52.3247 59.1906H34.202C31.7987 59.1906 29.4939 60.1879 27.7946 61.963C26.0952 63.7382 25.1406 66.1458 25.1406 68.6562V73.3891" stroke="#B1A28D" stroke-width="4" stroke-linecap="round" stroke-linejoin="round"/>
<path d="M43.2634 49.725C48.2678 49.725 52.3247 45.487 52.3247 40.2593C52.3247 35.0316 48.2678 30.7937 43.2634 30.7937C38.2589 30.7937 34.202 35.0316 34.202 40.2593C34.202 45.487 38.2589 49.725 43.2634 49.725Z" stroke="#B1A28D" stroke-width="4" stroke-linecap="round" stroke-linejoin="round"/>
<path d="M74.9782 73.3891V68.6563C74.9767 66.559 74.3085 64.5216 73.0784 62.8641C71.8483 61.2065 70.1261 60.0226 68.1822 59.4983" stroke="#B1A28D" stroke-width="4" stroke-linecap="round" stroke-linejoin="round"/>
<path d="M59.1208 31.1016C61.0699 31.6229 62.7975 32.807 64.0312 34.4673C65.2649 36.1276 65.9346 38.1696 65.9346 40.2714C65.9346 42.3732 65.2649 44.4152 64.0312 46.0754C62.7975 47.7357 61.0699 48.9199 59.1208 49.4412" stroke="#B1A28D" stroke-width="4" stroke-linecap="round" stroke-linejoin="round"/>
</svg>
