<svg width="224" height="44" viewBox="0 0 224 44" fill="none" xmlns="http://www.w3.org/2000/svg">
<path d="M150.073 0H117.052C112.087 0 108.067 4.02464 108.067 8.9942V34.472C108.067 39.4415 112.087 43.4662 117.052 43.4662H150.073C155.038 43.4662 159.059 39.4415 159.059 34.472V8.9942C159.076 4.02464 155.055 0 150.073 0ZM147.172 30.0098C147.172 32.1447 145.441 33.877 143.308 33.877H123.835C121.702 33.877 119.971 32.1447 119.971 30.0098V13.2988C119.971 11.164 121.702 9.43167 123.835 9.43167H143.308C145.441 9.43167 147.172 11.164 147.172 13.2988V30.0098Z" fill="white"/>
<path d="M53.1768 21.1906V22.2755C53.1768 33.982 62.6515 43.4837 74.3637 43.4837H103.434V27.5426H91.6698V33.8945H75.6573C69.7312 33.8945 64.924 29.0824 64.924 23.1505V20.1757C64.924 14.2437 69.7312 9.43167 75.6573 9.43167H91.6698V15.6261H103.417V0H74.3637C62.669 0 53.1768 9.48416 53.1768 21.1906Z" fill="white"/>
<path d="M42.4436 0L31.8502 33.877H22.2007L11.6073 0H0V0.472455L10.4361 33.877L13.4428 43.4837H40.6081L43.5973 33.877L50.2401 12.6164L54.1907 0H42.4436Z" fill="white"/>
<path d="M207.498 0.157471L195.069 23.5179H192.639L180.21 0.157471H163.708V43.4836H175.456V14.1737L191.049 43.4836H191.206H196.503H196.66L212.253 14.1737V43.4836H224V0.157471H207.498Z" fill="white"/>
</svg>
